# AST/ASF file generated using VICON BodyLanguage
# -----------------------------------------------
:version 1.10
:name VICON
:units
  mass 1.0
  length 0.45
  angle deg
:documentation
   .ast/.asf automatically generated from VICON data using
   VICON BodyBuilder and BodyLanguage model FoxedUp or BRILLIANT.MOD
:root
   order TX TY TZ RX RY RZ
   axis XYZ
   position 0 0 0  
   orientation 0 0 0 
:bonedata
  begin
     id 1 
     name lhipjoint
     direction 0.578396 -0.714046 0.394458 
     length 2.21935 
     axis 0 0 0  XYZ
  end
  begin
     id 2 
     name lfemur
     direction 0.34202 -0.939693 0  
     length 6.39105  
     axis 0 0 20  XYZ
    dof rx ry rz
    limits (-160.0 20.0)
           (-70.0 70.0)
           (-60.0 70.0)
  end
  begin
     id 3 
     name ltibia
     direction 0.34202 -0.939693 0   
     length 6.99037   
     axis 0 0 20   XYZ
    dof rx
    limits (-10.0 170.0)
  end
  begin
     id 4 
     name lfoot
     direction 0.0582372 -0.160005 0.985397   
     length 2.06111   
     axis -90 7.62852e-016 20   XYZ
    dof rx rz
    limits (-45.0 90.0)
           (-70.0 20.0)
  end
  begin
     id 5 
     name ltoes
     direction 1.53556e-011 -4.21875e-011 1   
     length 1.04074   
     axis -90 7.62852e-016 20   XYZ
    dof rx
    limits (-90.0 20.0)
  end
  begin
     id 6 
     name rhipjoint
     direction -0.558179 -0.726269 0.40121   
     length 2.182  
     axis 0 0 0  XYZ 
  end
  begin
     id 7 
     name rfemur
     direction -0.34202 -0.939693 0   
     length 6.51172   
     axis 0 0 -20   XYZ
    dof rx ry rz
    limits (-160.0 20.0)
           (-70.0 70.0)
           (-70.0 60.0)
  end
  begin
     id 8 
     name rtibia
     direction -0.34202 -0.939693 0   
     length 7.02607   
     axis 0 0 -20   XYZ
    dof rx
    limits (-10.0 170.0)
 end
 begin
     id 9 
     name rfoot
     direction -0.0788856 -0.216737 0.973038   
     length 1.96734  
     axis -90 -7.62852e-016 -20   XYZ
    dof rx rz
    limits (-45.0 90.0)
           (-20.0 70.0)
  end
  begin
     id 10 
     name rtoes
     direction -1.53567e-011 -4.21783e-011 1   
     length 0.990825   
     axis -90 -7.62852e-016 -20   XYZ
    dof rx
    limits (-90.0 20.0)
  end
  begin
     id 11 
     name lowerback
     direction 0.00668177 0.999323 -0.0361741   
     length 1.7655   
     axis 0 0 0   XYZ
    dof rx ry rz
    limits (-20.0 45.0)
           (-30.0 30.0)
           (-30.0 30.0)
  end
  begin
     id 12 
     name upperback
     direction -0.00222086 0.99851 0.0545167   
     length 1.74912   
     axis 0 0 0   XYZ
    dof rx ry rz
    limits (-20.0 45.0)
           (-30.0 30.0)
           (-30.0 30.0)
  end
  begin
     id 13 
     name thorax
     direction -0.00733971 0.997496 0.0703443   
     length 1.75715   
     axis 0 0 0   XYZ
    dof rx ry rz
    limits (-20.0 45.0)
           (-30.0 30.0)
           (-30.0 30.0)
  end
  begin
     id 14 
     name lowerneck
     direction 0.0279797 0.994795 0.0979765   
     length 1.46939   
     axis 0 0 0   XYZ
    dof rx ry rz
    limits (-20.0 45.0)
           (-30.0 30.0)
           (-30.0 30.0)
  end
  begin
     id 15 
     name upperneck
     direction 0.00339187 0.976776 -0.214238   
     length 1.48018   
     axis 0 0 0   XYZ
    dof rx ry rz
    limits (-20.0 45.0)
           (-30.0 30.0)
           (-30.0 30.0)
  end
  begin
     id 16
     name head
     direction -0.00263506 0.996603 -0.0823096  
     length 1.4976  
     axis 0 0 0   XYZ
    dof rx ry rz
    limits (-20.0 45.0)
           (-30.0 30.0)
           (-30.0 30.0)
  end
  begin
     id 17 
     name lclavicle
     direction 0.894044 0.44508 -0.0508781  
     length 3.03024  
     axis 0 0 0   XYZ
    dof ry rz
    limits (-20.0 10.0)
           (0.0 20.0)
  end
  begin
     id 18 
     name lhumerus
     direction 1 -4.48961e-011 -2.39475e-018   
     length 4.4661   
     axis 180 -30 -90   XYZ
    dof rx ry rz
    limits (-60.0 90.0)
           (-90.0 90.0)
           (-90.0 90.0)
  end
  begin
     id 19
     name lradius
     direction 1 -4.48961e-011 9.29328e-028   
     length 3.41414   
     axis 180 -30 -90   XYZ
    dof rx
    limits (-10.0 170.0)
  end
  begin
     id 20
     name lwrist
     direction 1 -4.48985e-011 1.53461e-026   
     length 1.70707   
     axis -1.09697e-014 90 90   XYZ
    dof ry
    limits (-180.0 0.0)
 end
  begin
     id 21 
     name lhand
     direction 1 -4.48966e-011 3.06923e-026   
     length 0.328298   
     axis -1.95843e-014 90 90   XYZ
    dof rx rz
    limits (-90.0 90.0)
           (-45.0 45.0)
  end
  begin
     id 22 
     name lfingers
     direction 1 -4.48893e-011 6.13845e-026   
     length 0.264682   
     axis -3.91686e-014 90 90   XYZ
    dof rx
    limits (0.0 90.0)
  end
  begin
     id 23
     name lthumb
     direction 0.707107 -6.34876e-011 0.707107   
     length 0.380032   
     axis -90 45 2.85299e-015   XYZ
    dof rx rz
    limits (-45.0 45.0)
           (-45.0 45.0)
  end
  begin
     id 24 
     name rclavicle
     direction -0.936955 0.347862 -0.0332887   
     length 3.26927  
     axis 0 0 0   XYZ 
    dof ry rz
    limits (-10.0 20.0)
           (-20.0 0.0)
  end
  begin
     id 25 
     name rhumerus
     direction -1 -4.4896e-011 1.78637e-018  
     length 4.40431   
     axis 180 30 90   XYZ
    dof rx ry rz
    limits (-90.0 60.0)
           (-90.0 90.0)
           (-90.0 90.0)
  end
  begin
     id 26 
     name rradius
     direction -1 -4.48955e-011 9.34036e-027   
     length 3.04688   
     axis 180 30 90   XYZ
    dof rx
    limits (-10.0 170.0)
  end
  begin
     id 27 
     name rwrist
     direction -1 -4.49011e-011 1.53461e-026   
     length 1.52344   
     axis -1.09697e-014 -90 -90   XYZ
    dof ry
    limits (-180.0 0.0)
  end
  begin
     id 28
     name rhand
     direction -1 -4.48834e-011 3.06923e-026   
     length 0.500489   
     axis -1.95843e-014 -90 -90   XYZ
    dof rx rz
    limits (-90.0 90.0)
           (-45.0 45.0)
  end
  begin
     id 29
     name rfingers
     direction -1 -4.48967e-011 6.13845e-026   
     length 0.403507   
     axis -3.91686e-014 -90 -90   XYZ
    dof rx
    limits (0.0 90.0)
  end
  begin
     id 30
     name rthumb
     direction -0.707107 -6.34826e-011 0.707107   
     length 0.579358   
     axis -90 -45 -2.85299e-015   XYZ
    dof rx rz
    limits (-45.0 45.0)
           (-45.0 45.0)
  end
:hierarchy
  begin
    root lhipjoint rhipjoint lowerback
    lhipjoint lfemur
    lfemur ltibia
    ltibia lfoot
    lfoot ltoes
    rhipjoint rfemur
    rfemur rtibia
    rtibia rfoot
    rfoot rtoes
    lowerback upperback
    upperback thorax
    thorax lowerneck lclavicle rclavicle
    lowerneck upperneck
    upperneck head
    lclavicle lhumerus
    lhumerus lradius
    lradius lwrist
    lwrist lhand lthumb
    lhand lfingers
    rclavicle rhumerus
    rhumerus rradius
    rradius rwrist
    rwrist rhand rthumb
    rhand rfingers
  end

#!OML:ASF H:\IndianDance\Patient Classification 1\Patient 1\Session 1\dancer.ASF
:FULLY-SPECIFIED
:DEGREES
870
root 5.40803 15.0969 4.52098 -170.218 7.27326 -181.496
lowerback 8.62048 5.333 -0.985137
upperback -5.43002 7.8716 -12.961
thorax -8.99519 4.16012 -15.3795
lowerneck -19.5848 10.0053 3.89166
upperneck 30.4044 6.34852 14.3128
head 13.2203 4.50444 5.92179
rclavicle -7.11649e-014 4.77083e-014
rhumerus -56.2092 52.5723 -103.18
rradius 98.4716
rwrist -88.2978
rhand 29.9677 -0.275338
rfingers 7.12502
rthumb 53.6779 -19.3288
lclavicle -7.11649e-014 4.77083e-014
lhumerus -14.5986 -60.4558 44.017
lradius 63.1749
lwrist 68.0885
lhand 42.6932 16.735
lfingers 7.12502
lthumb 64.5866 24.5855
rfemur -46.3193 -23.5076 23.037
rtibia 25.6421
rfoot -22.4633 -28.4595
rtoes 10.2845
lfemur -32.2009 25.6059 -25.276
ltibia 52.7591
lfoot -17.6248 9.89041
ltoes 1.0024
871
root 5.39977 15.0876 4.52369 -170.121 7.29597 -181.577
lowerback 8.5858 5.31118 -0.997162
upperback -5.51882 7.84269 -12.977
thorax -9.08131 4.14131 -15.4004
lowerneck -19.598 10.0308 3.89337
upperneck 30.386 6.40918 14.2754
head 13.2113 4.52985 5.91545
rclavicle 3.1408e-014 -2.06736e-013
rhumerus -56.2143 52.7212 -102.994
rradius 98.4877
rwrist -88.2583
rhand 30.1452 -0.270289
rfingers 7.12502
rthumb 53.8374 -19.2176
lclavicle 3.1408e-014 -2.06736e-013
lhumerus -14.44 -59.9438 43.98
lradius 62.2882
lwrist 67.4353
lhand 43.1735 16.8076
lfingers 7.12502
lthumb 64.9678 24.038
rfemur -46.9153 -24.0925 23.4024
rtibia 26.1099
rfoot -22.3664 -28.2211
rtoes 9.56282
lfemur -31.9389 25.4394 -25.5606
ltibia 52.0598
lfoot -18.1815 10.488
ltoes 1.16566
872
root 5.38751 15.0744 4.52731 -170.003 7.37422 -181.66
lowerback 8.5264 5.3093 -0.991
upperback -5.61298 7.84021 -12.9798
thorax -9.15196 4.13391 -15.4136
lowerneck -19.6196 10.0537 3.8922
upperneck 30.38 6.4854 14.1905
head 13.2093 4.55742 5.89502
rclavicle 3.37934e-014 3.81667e-014
rhumerus -56.1962 52.8914 -102.742
rradius 98.515
rwrist -88.2016
rhand 30.2751 -0.271741
rfingers 7.12502
rthumb 53.9542 -19.1407
lclavicle 3.37934e-014 3.81667e-014
lhumerus -14.3571 -59.4164 44.0376
lradius 61.4205
lwrist 66.817
lhand 43.5534 16.8824
lfingers 7.12502
lthumb 65.2671 23.6082
rfemur -47.6979 -24.801 23.8969
rtibia 26.7345
rfoot -22.2645 -27.8524
rtoes 8.68048
lfemur -31.6226 25.2356 -25.8635
ltibia 51.2674
lfoot -18.8338 11.1523
ltoes 1.42133
873
root 5.37189 15.0566 4.53207 -169.86 7.50726 -181.735
lowerback 8.4458 5.32073 -0.961614
upperback -5.71631 7.85519 -12.9693
thorax -9.21503 4.13245 -15.423
lowerneck -19.6455 10.0823 3.90283
upperneck 30.3806 6.58208 14.063
head 13.2116 4.59104 5.86009
rclavicle -2.42517e-014 -5.08889e-014
rhumerus -56.1533 53.0872 -102.44
rradius 98.5542
rwrist -88.1262
rhand 30.3548 -0.275209
rfingers 7.12502
rthumb 54.0257 -19.0959
lclavicle -2.42517e-014 -5.08889e-014
lhumerus -14.3711 -58.864 44.1892
lradius 60.5712
lwrist 66.2257
lhand 43.8443 16.964
lfingers 7.12502
lthumb 65.4949 23.2947
rfemur -48.6739 -25.6082 24.532
rtibia 27.524
rfoot -22.1927 -27.3419
rtoes 7.74012
lfemur -31.3213 25.0279 -26.1739
ltibia 50.4737
lfoot -19.534 11.8616
ltoes 1.71743
874
root 5.35415 15.0342 4.53866 -169.688 7.68582 -181.802
lowerback 8.35667 5.34099 -0.921749
upperback -5.83366 7.88006 -12.9485
thorax -9.28658 4.13326 -15.4276
lowerneck -19.6698 10.1175 3.92606
upperneck 30.3787 6.69623 13.9068
head 13.2131 4.63076 5.81437
rclavicle -1.74931e-014 6.04305e-014
rhumerus -56.0903 53.2939 -102.103
rradius 98.607
rwrist -88.0292
rhand 30.3873 -0.282595
rfingers 7.12502
rthumb 54.0548 -19.0835
lclavicle -1.74931e-014 6.04305e-014
lhumerus -14.4624 -58.3022 44.397
lradius 59.7474
lwrist 65.6708
lhand 44.0822 17.0647
lfingers 7.12502
lthumb 65.6802 23.0669
rfemur -49.8301 -26.4586 25.2786
rtibia 28.4764
rfoot -22.1833 -26.7277
rtoes 6.84693
lfemur -31.109 24.8522 -26.4946
ltibia 49.774
lfoot -20.2351 12.5713
ltoes 2.0696
875
root 5.33552 15.0075 4.54759 -169.492 7.89691 -181.874
lowerback 8.27285 5.3646 -0.884588
upperback -5.96445 7.90793 -12.9273
thorax -9.37618 4.13413 -15.4342
lowerneck -19.6845 10.1556 3.9656
upperneck 30.3603 6.81695 13.7374
head 13.2071 4.67358 5.75994
rclavicle -1.27222e-014 -1.27222e-013
rhumerus -56.0017 53.4906 -101.742
rradius 98.6711
rwrist -87.9089
rhand 30.3834 -0.289167
rfingers 7.12502
rthumb 54.0514 -19.0924
lclavicle -1.27222e-014 -1.27222e-013
lhumerus -14.5886 -57.7524 44.6062
lradius 58.9512
lwrist 65.1478
lhand 44.2899 17.1847
lfingers 7.12502
lthumb 65.8413 22.8957
rfemur -51.1315 -27.2984 26.0847
rtibia 29.5795
rfoot -22.2762 -26.0507
rtoes 6.15436
lfemur -31.0444 24.7443 -26.8344
ltibia 49.2497
lfoot -20.8822 13.2275
ltoes 2.45068
876
root 5.31736 14.9773 4.55874 -169.283 8.13345 -181.97
lowerback 8.20041 5.38582 -0.879805
upperback -6.10585 7.9304 -12.9152
thorax -9.48888 4.13382 -15.4374
lowerneck -19.6892 10.1974 4.02073
upperneck 30.3233 6.93704 13.5749
head 13.1927 4.71823 5.70355
rclavicle 1.24439e-013 2.54444e-014
rhumerus -55.882 53.6627 -101.381
rradius 98.7327
rwrist -87.7673
rhand 30.3608 -0.287492
rfingers 7.12502
rthumb 54.0311 -19.1045
lclavicle 1.24439e-013 2.54444e-014
lhumerus -14.7196 -57.216 44.779
lradius 58.1701
lwrist 64.6282
lhand 44.5414 17.3425
lfingers 7.12502
lthumb 66.0354 22.6954
rfemur -52.5289 -28.0783 26.8809
rtibia 30.8158
rfoot -22.4972 -25.3549
rtoes 5.76037
lfemur -31.159 24.7326 -27.2114
ltibia 48.9557
lfoot -21.4347 13.7801
ltoes 2.83571
